<svg width="64" height="64" viewBox="0 0 64 64" fill="none" xmlns="http://www.w3.org/2000/svg">
<g clip-path="url(#clip0_4372_12353)">
<path d="M58.182 15.9476L58.1802 4.07215C58.1797 1.82342 56.3562 0 54.1075 0H42.6009C41.4123 0 40.2824 0.519564 39.5085 1.42196L6.79872 39.5834C6.16629 40.3217 5.81836 41.262 5.81836 42.2342V54.1097C5.81836 56.359 7.64178 58.1824 9.89109 58.1824H21.3994C22.5881 58.1824 23.718 57.6628 24.4918 56.7604L57.2011 18.599C57.8341 17.8607 58.1814 16.9204 58.1814 15.9476H58.182Z" fill="#D249FC"/>
<path d="M58.1818 14.5193V4.07273C58.1818 1.82342 56.3584 0 54.1091 0H41.0164C40.8239 0 40.6313 0.0139636 40.4404 0.0407273L3.49673 5.3184C1.49062 5.60465 0 7.32334 0 9.34982V25.0228C0 27.2727 1.824 29.0961 4.07389 29.0956L22.6124 29.0909C23.0499 29.0909 23.4845 29.0205 23.8993 28.882L55.3972 18.3825C57.0601 17.8281 58.1818 16.2717 58.1818 14.5187V14.5193Z" fill="url(#paint0_linear_4372_12353)"/>
<path d="M64 59.9275V25.9592C64 24.3301 63.0289 22.8575 61.5319 22.2157L24.0413 6.14767C23.5345 5.93065 22.9882 5.81836 22.4367 5.81836H4.07273C1.82342 5.81836 0 7.64178 0 9.89109V27.8571C0 28.6617 0.238545 29.4483 0.685382 30.118L22.0887 62.1866C22.8439 63.3189 24.1152 63.9984 25.4761 63.9984L59.9273 64.0002C62.1766 64.0002 64 62.1768 64 59.9275Z" fill="url(#paint1_linear_4372_12353)"/>
<path d="M52 12H12V52H52V12Z" fill="black"/>
<path d="M33 44H17V47H33V44Z" fill="white"/>
<path d="M17 17.3287H23.2981C24.3249 17.3287 25.2298 17.5173 26.0124 17.8946C26.7949 18.2718 27.3956 18.8023 27.815 19.4872C28.241 20.1721 28.4544 20.9648 28.4544 21.8658C28.4544 22.7668 28.2377 23.5842 27.8048 24.2758C27.3788 24.9674 26.7674 25.5058 25.9708 25.8897C25.1815 26.267 24.2626 26.4556 23.215 26.4556H19.8619V31.9992H17.0011V17.3287H17ZM23.1089 24.0776C23.5911 24.0776 24.0099 23.99 24.3664 23.8154C24.7296 23.6336 25.0092 23.3793 25.2045 23.0503C25.3999 22.7151 25.4981 22.3272 25.4981 21.8871C25.4981 21.447 25.4005 21.0551 25.2045 20.7346C25.0086 20.4056 24.7296 20.1541 24.3664 19.9801C24.0099 19.7982 23.5911 19.7078 23.1089 19.7078H19.8602V24.0776H23.1089ZM35.0511 32.2513C33.975 32.2513 33.0077 32.0587 32.1482 31.6747C31.2888 31.2908 30.6145 30.7524 30.1256 30.0608C29.6366 29.3624 29.3851 28.5664 29.3711 27.6716H32.2425C32.2425 28.0909 32.3649 28.4642 32.6091 28.7926C32.8606 29.1137 33.1991 29.3652 33.6258 29.5471C34.0586 29.729 34.5481 29.8194 35.0927 29.8194C35.6097 29.8194 36.0706 29.7397 36.4759 29.5786C36.8879 29.4107 37.2096 29.1805 37.4398 28.8869C37.6705 28.5933 37.7856 28.2582 37.7856 27.8809C37.7856 27.4133 37.6424 27.0215 37.3561 26.7071C37.0766 26.386 36.6887 26.1766 36.193 26.0784L33.1857 25.5018C32.48 25.3693 31.8653 25.1178 31.3415 24.7473C30.8245 24.3701 30.4265 23.9025 30.1469 23.3433C29.8673 22.7775 29.7276 22.1487 29.7276 21.4571C29.7276 20.6044 29.9544 19.8471 30.4085 19.183C30.8694 18.5188 31.5015 18.0029 32.3054 17.6319C33.1155 17.2614 34.0272 17.0767 35.0404 17.0767C36.0537 17.0767 36.9755 17.2585 37.7861 17.6218C38.6035 17.9844 39.2429 18.4913 39.7038 19.1414C40.172 19.7847 40.4095 20.5246 40.4162 21.3628H37.5554C37.5554 21.0001 37.4471 20.6779 37.2304 20.3989C37.021 20.1199 36.7274 19.9026 36.3501 19.7494C35.9729 19.5883 35.5468 19.5086 35.0719 19.5086C34.597 19.5086 34.181 19.586 33.8037 19.7393C33.4265 19.8925 33.1329 20.1059 32.9235 20.3787C32.7141 20.6448 32.6091 20.9513 32.6091 21.301C32.6091 21.7058 32.7382 22.0488 32.997 22.3278C33.2553 22.6001 33.6151 22.7825 34.0766 22.8729L36.9896 23.418C37.7233 23.5505 38.3694 23.8199 38.928 24.2247C39.4939 24.6294 39.9306 25.1364 40.2377 25.7443C40.5448 26.3456 40.6986 27.0018 40.6986 27.7142C40.6986 28.5945 40.4577 29.3804 39.9755 30.072C39.4933 30.7569 38.823 31.2913 37.9635 31.6753C37.1041 32.0593 36.1329 32.2518 35.0506 32.2518L35.0511 32.2513Z" fill="white"/>
</g>
<defs>
<linearGradient id="paint0_linear_4372_12353" x1="56.3788" y1="-0.717381" x2="2.75258" y2="24.146" gradientUnits="userSpaceOnUse">
<stop offset="0.16" stop-color="#D249FC"/>
<stop offset="0.55" stop-color="#FF2D90"/>
</linearGradient>
<linearGradient id="paint1_linear_4372_12353" x1="3.98196" y1="4.22243" x2="62.6868" y2="62.9279" gradientUnits="userSpaceOnUse">
<stop offset="0.3" stop-color="#FF2D90"/>
<stop offset="0.7" stop-color="#7256FF"/>
</linearGradient>
<clipPath id="clip0_4372_12353">
<rect width="64" height="64" fill="white"/>
</clipPath>
</defs>
</svg>
